<?xml version="1.0" standalone="no"?>
<!DOCTYPE svg PUBLIC "-//W3C//DTD SVG 1.1//EN" "http://www.w3.org/Graphics/SVG/1.1/DTD/svg11.dtd"><svg t="1618827371709"
    class="icon" viewBox="0 0 1024 1024" version="1.1" xmlns="http://www.w3.org/2000/svg" p-id="2176" width="12"
    height="12" xmlns:xlink="http://www.w3.org/1999/xlink">
    <defs>
        <style type="text/css"></style>
    </defs>
    <path
        d="M583.168 523.776L958.464 148.48c18.944-18.944 18.944-50.176 0-69.12l-2.048-2.048c-18.944-18.944-50.176-18.944-69.12 0L512 453.12 136.704 77.312c-18.944-18.944-50.176-18.944-69.12 0l-2.048 2.048c-19.456 18.944-19.456 50.176 0 69.12l375.296 375.296L65.536 899.072c-18.944 18.944-18.944 50.176 0 69.12l2.048 2.048c18.944 18.944 50.176 18.944 69.12 0L512 594.944 887.296 970.24c18.944 18.944 50.176 18.944 69.12 0l2.048-2.048c18.944-18.944 18.944-50.176 0-69.12L583.168 523.776z"
        p-id="2177" fill="#707070"></path>
</svg>