<?xml version="1.0" standalone="no"?><!DOCTYPE svg PUBLIC "-//W3C//DTD SVG 1.1//EN" "http://www.w3.org/Graphics/SVG/1.1/DTD/svg11.dtd"><svg t="1616858656874" class="icon" viewBox="0 0 1024 1024" version="1.1" xmlns="http://www.w3.org/2000/svg" p-id="6042" width="16" height="16" xmlns:xlink="http://www.w3.org/1999/xlink"><defs><style type="text/css"></style></defs><path d="M12.8 512c0 275.2512 223.9488 499.2 499.2 499.2s499.2-223.9488 499.2-499.2a502.1184 502.1184 0 0 0-282.88-449.9968 38.4 38.4 0 1 0-33.28 69.2224A424.96 424.96 0 0 1 934.4 512c0 232.9088-189.4912 422.4-422.4 422.4S89.6 744.9088 89.6 512 279.0912 89.6 512 89.6a38.4 38.4 0 0 0 0-76.8C236.7488 12.8 12.8 236.7488 12.8 512z" fill="#d81e06" p-id="6043"></path><path d="M512 750.3872m-51.2 0a51.2 51.2 0 1 0 102.4 0 51.2 51.2 0 1 0-102.4 0Z" fill="#d81e06" p-id="6044"></path><path d="M512 568.0128a38.4 38.4 0 0 0 38.4-38.4v-307.2a38.4 38.4 0 0 0-76.8 0v307.2c0 21.1968 17.2032 38.4 38.4 38.4z" fill="#d81e06" p-id="6045"></path></svg>